<svg width="512" height="512" viewBox="0 0 512 512" xmlns="http://www.w3.org/2000/svg">
  <!-- Background gradient -->
  <defs>
    <linearGradient id="bgGradient" x1="0%" y1="0%" x2="100%" y2="100%">
      <stop offset="0%" style="stop-color:#667eea;stop-opacity:1" />
      <stop offset="100%" style="stop-color:#764ba2;stop-opacity:1" />
    </linearGradient>
    <linearGradient id="iconGradient" x1="0%" y1="0%" x2="100%" y2="100%">
      <stop offset="0%" style="stop-color:#FE6B8B;stop-opacity:1" />
      <stop offset="100%" style="stop-color:#FF8E53;stop-opacity:1" />
    </linearGradient>
  </defs>
  
  <!-- Background -->
  <rect width="512" height="512" rx="80" fill="url(#bgGradient)"/>
  
  <!-- AI Brain Icon -->
  <g transform="translate(128, 128)">
    <!-- Brain outline -->
    <path d="M128 64C128 28.7 99.3 0 64 0S0 28.7 0 64c0 35.3 28.7 64 64 64s64-28.7 64-64z" fill="url(#iconGradient)" opacity="0.9"/>
    <path d="M256 64c0-35.3-28.7-64-64-64s-64 28.7-64 64c0 35.3 28.7 64 64 64s64-28.7 64-64z" fill="url(#iconGradient)" opacity="0.9"/>
    
    <!-- Neural connections -->
    <circle cx="64" cy="64" r="8" fill="white" opacity="0.8"/>
    <circle cx="192" cy="64" r="8" fill="white" opacity="0.8"/>
    <circle cx="128" cy="32" r="6" fill="white" opacity="0.6"/>
    <circle cx="128" cy="96" r="6" fill="white" opacity="0.6"/>
    
    <!-- Connection lines -->
    <line x1="64" y1="64" x2="128" y2="32" stroke="white" stroke-width="2" opacity="0.6"/>
    <line x1="64" y1="64" x2="128" y2="96" stroke="white" stroke-width="2" opacity="0.6"/>
    <line x1="192" y1="64" x2="128" y2="32" stroke="white" stroke-width="2" opacity="0.6"/>
    <line x1="192" y1="64" x2="128" y2="96" stroke="white" stroke-width="2" opacity="0.6"/>
  </g>
  
  <!-- Schedule/Calendar Icon -->
  <g transform="translate(256, 320)">
    <rect x="0" y="0" width="128" height="96" rx="12" fill="white" opacity="0.9"/>
    <rect x="16" y="16" width="96" height="8" fill="url(#iconGradient)"/>
    <rect x="16" y="32" width="24" height="8" fill="#667eea" opacity="0.6"/>
    <rect x="48" y="32" width="24" height="8" fill="#667eea" opacity="0.6"/>
    <rect x="80" y="32" width="24" height="8" fill="#667eea" opacity="0.6"/>
    <rect x="16" y="48" width="24" height="8" fill="#667eea" opacity="0.4"/>
    <rect x="48" y="48" width="24" height="8" fill="url(#iconGradient)" opacity="0.8"/>
    <rect x="80" y="48" width="24" height="8" fill="#667eea" opacity="0.4"/>
  </g>
  
  <!-- Upload/Cloud Icon -->
  <g transform="translate(128, 320)">
    <ellipse cx="64" cy="48" rx="48" ry="24" fill="white" opacity="0.9"/>
    <polygon points="64,16 48,32 56,32 56,48 72,48 72,32 80,32" fill="url(#iconGradient)"/>
  </g>
  
  <!-- App Title -->
  <text x="256" y="480" text-anchor="middle" font-family="Inter, sans-serif" font-size="36" font-weight="bold" fill="white">VISIONARY</text>
</svg>